<?xml version="1.0" encoding="UTF-8"?>
<svg xmlns="http://www.w3.org/2000/svg" viewBox="0 0 512 512" fill="none" stroke-width="2" stroke-linecap="round" stroke-linejoin="round">
  <!-- Main Cart Body -->
  <path d="M154 352H390.4C403.2 352 414.4 343.2 416.8 330.4L440 176H108" stroke="#DC7F02" stroke-width="20" stroke-linecap="round" stroke-linejoin="round"/>
  
  <!-- Cart Wheels -->
  <circle cx="176" cy="416" r="32" stroke="#DC7F02" stroke-width="20" fill="none"/>
  <circle cx="368" cy="416" r="32" stroke="#DC7F02" stroke-width="20" fill="none"/>
  
  <!-- Cart Handle -->
  <path d="M88 112H72C67.6 112 64 115.6 64 120C64 124.4 67.6 128 72 128H120" stroke="#DC7F02" stroke-width="20" stroke-linecap="round" stroke-linejoin="round"/>
  
  <!-- Cart Top Edge -->
  <path d="M154 176L170.8 96H440" stroke="#DC7F02" stroke-width="20" stroke-linecap="round" stroke-linejoin="round"/>
  
  <!-- Empty State Elements -->
  <!-- Dotted lines representing emptiness -->
  <path d="M176 224H368" stroke="#DC7F02" stroke-width="14" stroke-linecap="round" stroke-dasharray="20,15"/>
  <path d="M200 256H344" stroke="#DC7F02" stroke-width="14" stroke-linecap="round" stroke-dasharray="20,15"/>
  <path d="M224 288H320" stroke="#DC7F02" stroke-width="14" stroke-linecap="round" stroke-dasharray="20,15"/>
  
  <!-- Decorative Elements -->
  <path d="M272 144V112" stroke="#DC7F02" stroke-width="14" stroke-linecap="round"/>
  <path d="M336 144V112" stroke="#DC7F02" stroke-width="14" stroke-linecap="round"/>
  
  <!-- Empty Indicator -->
  <circle cx="272" cy="208" r="60" stroke="#DC7F02" stroke-width="10" stroke-dasharray="15,10" fill="none"/>
  <path d="M246 208L298 208" stroke="#DC7F02" stroke-width="10" stroke-linecap="round"/>
</svg> 