<?xml version="1.0" encoding="UTF-8"?>
<svg xmlns="http://www.w3.org/2000/svg" viewBox="0 0 512 512" fill="none">
  <!-- Background circle -->
  <circle cx="256" cy="256" r="200" fill="#FFF5E9" />
  
  <!-- Shopping cart -->
  <path d="M330 290H190L150 170H370L330 290Z" fill="white" stroke="#DC7F02" stroke-width="12" stroke-linejoin="round" />
  <line x1="170" y1="210" x2="350" y2="210" stroke="#DC7F02" stroke-width="8" stroke-linecap="round" stroke-dasharray="10,10" />
  <line x1="180" y1="250" x2="340" y2="250" stroke="#DC7F02" stroke-width="8" stroke-linecap="round" stroke-dasharray="10,10" />
  
  <!-- Cart wheels -->
  <circle cx="200" cy="330" r="20" fill="white" stroke="#DC7F02" stroke-width="10" />
  <circle cx="320" cy="330" r="20" fill="white" stroke="#DC7F02" stroke-width="10" />
  
  <!-- Cart handle -->
  <path d="M150 170C150 170 140 140 110 140" stroke="#DC7F02" stroke-width="10" stroke-linecap="round" />
  
  <!-- Sad face in cart -->
  <circle cx="260" cy="220" r="30" stroke="#DC7F02" stroke-width="8" fill="white" />
  <path d="M245 230C245 230 255 240 275 230" stroke="#DC7F02" stroke-width="6" stroke-linecap="round" />
  <circle cx="248" cy="215" r="4" fill="#DC7F02" />
  <circle cx="272" cy="215" r="4" fill="#DC7F02" />
  
  <!-- Food items floating around -->
  <path d="M150 120C150 120 160 110 175 118C190 126 185 140 175 145C165 150 150 145 150 130C150 115 160 115 165 118" fill="#FBD38D" stroke="#DC7F02" stroke-width="6" stroke-linejoin="round" />
  
  <path d="M370 130C370 120 360 115 350 120C340 125 340 140 350 145C360 150 375 145 375 130" fill="#FBD38D" stroke="#DC7F02" stroke-width="6" stroke-linejoin="round" />
  
  <rect x="280" y="100" width="30" height="40" rx="5" fill="#FBD38D" stroke="#DC7F02" stroke-width="6" />
  
  <!-- Text -->
  <path d="M180 390H340" stroke="#DC7F02" stroke-width="10" stroke-linecap="round" />
  <path d="M220 420H300" stroke="#DC7F02" stroke-width="10" stroke-linecap="round" />
</svg> 